<?xml version="1.0" encoding="iso-8859-1"?>
<!-- Generator: Adobe Illustrator 19.1.0, SVG Export Plug-In . SVG Version: 6.00 Build 0)  -->
<svg version="1.1" id="Capa_1" xmlns="http://www.w3.org/2000/svg" xmlns:xlink="http://www.w3.org/1999/xlink" x="0px" y="0px"
	 viewBox="0 0 460.912 460.912" style="enable-background:new 0 0 460.912 460.912;" xml:space="preserve">
<g>
	<g>
		<path d="M452.548,8.365c-19.526-19.526-67.014-3.697-106.066,35.355c-31.853,31.853-58.584,63.841-77.782,91.924l-70.71-70.711
			c-1.851-1.851-4.399-2.971-6.916-3.072c-2.517-0.101-4.986,0.833-6.695,2.541c-9.789,9.789-19.578,19.578-29.367,29.367
			c-1.709,1.709-2.642,4.178-2.541,6.695s1.243,5.043,3.094,6.894l197.99,197.99c1.851,1.851,4.377,2.993,6.894,3.094
			c2.517,0.101,4.986-0.833,6.695-2.541c9.789-9.789,19.578-19.578,29.367-29.367c1.709-1.709,2.642-4.178,2.541-6.695
			s-1.221-5.065-3.071-6.916l-70.711-70.711c28.083-19.198,60.071-45.929,91.924-77.782
			C456.245,75.378,472.075,27.891,452.548,8.365L452.548,8.365z"/>
		<path d="M0,262.923l22.804,22.804c22.425-23.285,58.494-59.775,61.032-56.127c2.365,3.399-29.751,38.868-53.188,63.971
			l23.312,23.312c17.24-16.099,40.708-37.012,44.017-34.781c3.296,2.222-17.672,26.541-34.096,44.702l39.134,39.134
			c19.872-21.979,50.332-54.576,53.563-51.486c3.316,3.171-25.934,38.495-44.636,60.413l27.047,27.047
			c31.679-33.015,97.963-101.096,102.442-97.581c4.246,3.332-58.563,69.04-94.244,105.779l25.5,25.5
			c13.546-11.031,27.624-21.538,29.345-19.136c1.469,2.05-7.847,15.204-18.937,29.544l14.893,14.893L339.409,319.49L141.419,121.5
			L0,262.923L0,262.923z"/>
	</g>
	<g>
	</g>
	<g>
	</g>
	<g>
	</g>
	<g>
	</g>
	<g>
	</g>
	<g>
	</g>
	<g>
	</g>
	<g>
	</g>
	<g>
	</g>
	<g>
	</g>
	<g>
	</g>
	<g>
	</g>
	<g>
	</g>
	<g>
	</g>
	<g>
	</g>
</g>
<g>
</g>
<g>
</g>
<g>
</g>
<g>
</g>
<g>
</g>
<g>
</g>
<g>
</g>
<g>
</g>
<g>
</g>
<g>
</g>
<g>
</g>
<g>
</g>
<g>
</g>
<g>
</g>
<g>
</g>
</svg>
