<?xml version="1.0" encoding="utf-8"?>
<!-- Generator: Adobe Illustrator 16.0.0, SVG Export Plug-In . SVG Version: 6.00 Build 0)  -->
<svg version="1.2" baseProfile="tiny" id="Layer_1" xmlns="http://www.w3.org/2000/svg" xmlns:xlink="http://www.w3.org/1999/xlink"
	 x="0px" y="0px" width="1065px" height="465px" viewBox="0 0 1065 465" overflow="scroll" xml:space="preserve">
<g>
	<path fill="none" d="M90.891,371.799c-4.879-3.818-12.333-5.725-22.361-5.725H31.78c-1.893,0-3.431,1.746-3.431,3.908v36.998
		c0,2.162,1.538,3.906,3.431,3.906h38.608c8.655,0,15.456-1.867,20.402-5.602c4.942-3.727,7.417-9.33,7.417-16.799v-0.469
		C98.207,381.016,95.767,375.609,90.891,371.799z"/>
	<path fill="none" d="M477.862,403.654c2.401,3.643,5.416,6.584,9.053,8.814c3.635,2.238,7.927,3.357,12.874,3.357
		c4.942,0,9.238-1.119,12.875-3.357c3.633-2.23,6.654-5.172,9.053-8.814c2.401-3.645,4.18-7.615,5.345-11.924
		c1.163-4.309,1.747-8.613,1.747-12.918c0-4.137-0.584-8.406-1.747-12.799c-1.165-4.385-2.944-8.357-5.345-11.924
		c-2.399-3.557-5.42-6.455-9.053-8.689c-3.637-2.24-7.933-3.361-12.875-3.361c-4.947,0-9.238,1.121-12.874,3.361
		c-3.637,2.234-6.652,5.133-9.053,8.689c-2.401,3.566-4.184,7.539-5.347,11.924c-1.165,4.393-1.747,8.662-1.747,12.799
		c0,4.305,0.582,8.609,1.747,12.918C473.678,396.039,475.46,400.01,477.862,403.654z"/>
	<path fill="none" d="M31.78,341.676h31.187c8.243,0,14.839-1.826,19.782-5.48c4.947-3.662,7.421-9.217,7.421-16.688v-0.467
		c0-6.537-2.164-11.629-6.495-15.287c-4.324-3.66-10.61-5.486-18.852-5.486H31.78c-1.893,0-3.431,1.754-3.431,3.912v35.582
		C28.35,339.93,29.887,341.676,31.78,341.676z"/>
	<path fill="none" d="M760.988,329.752c0.406-0.285,0.609-0.768,0.609-1.439c0-0.588-0.146-1.027-0.438-1.299
		c-0.287-0.268-0.836-0.41-1.631-0.41h-2.633v3.441h2.537C760.195,330.045,760.717,329.947,760.988,329.752z"/>
	<path fill="none" d="M755.195,338.342c1.193,0.775,2.473,1.168,3.834,1.168c1.348,0,2.611-0.393,3.799-1.176
		c1.188-0.787,2.123-1.842,2.801-3.186c0.689-1.34,1.029-2.791,1.029-4.361c0-1.539-0.34-2.986-1.033-4.342
		c-0.682-1.354-1.615-2.422-2.797-3.201c-1.174-0.781-2.441-1.168-3.799-1.168c-1.369,0-2.654,0.387-3.846,1.168
		c-1.197,0.779-2.133,1.848-2.813,3.201c-0.689,1.355-1.025,2.814-1.025,4.371c0,1.549,0.336,2.996,1.025,4.34
		C753.051,336.502,753.99,337.559,755.195,338.342z M755.283,324.92h4.279c1,0,1.715,0.111,2.154,0.34
		c0.441,0.229,0.803,0.592,1.074,1.111c0.277,0.514,0.42,1.111,0.42,1.793c0,0.588-0.1,1.096-0.289,1.527
		c-0.15,0.316-0.475,0.656-0.979,1.041c0.459,0.252,0.764,0.551,0.928,0.891c0.156,0.332,0.236,0.91,0.236,1.742v1.303
		c0,0.621,0.117,1.129,0.355,1.535l0.172,0.309h-1.809c-0.121-0.473-0.203-1.041-0.246-1.699l-0.084-1.42
		c-0.027-0.518-0.107-0.887-0.223-1.102c-0.117-0.213-0.289-0.365-0.498-0.461c-0.213-0.1-0.65-0.141-1.297-0.141h-2.582v4.822
		h-1.613V324.92z"/>
	<path fill="#222944" d="M100.733,347.352c0.68-0.541,1.348-1.104,2.007-1.688c2.475-2.191,4.637-4.727,6.493-7.625
		c1.852-2.891,3.364-6.299,4.531-10.211c1.167-3.904,1.755-8.283,1.755-13.139v-0.467c0-10.795-3.232-19.861-9.687-27.221
		c-8.521-9.691-21.089-14.549-37.711-14.549H6.845c-1.897,0-3.431,1.756-3.431,3.914v156.426c0,2.158,1.533,3.904,3.431,3.904
		h63.336c8.104,0,15.417-0.977,21.944-2.932c6.527-1.951,12.124-4.811,16.797-8.563c4.669-3.754,8.276-8.447,10.821-14.082
		c2.537-5.631,3.808-12.115,3.808-19.471v-0.467c0-11.107-2.645-19.711-7.932-25.814c-3.921-4.516-8.73-8.268-14.428-11.246
		C98.76,352.852,98.541,349.09,100.733,347.352z M28.35,302.18c0-2.158,1.538-3.912,3.431-3.912h33.043
		c8.242,0,14.527,1.826,18.852,5.486c4.331,3.658,6.495,8.75,6.495,15.287v0.467c0,7.471-2.474,13.025-7.421,16.688
		c-4.942,3.654-11.539,5.48-19.782,5.48H31.78c-1.893,0-3.431-1.746-3.431-3.914V302.18z M98.207,388.486
		c0,7.469-2.474,13.072-7.417,16.799c-4.946,3.734-11.747,5.602-20.402,5.602H31.78c-1.893,0-3.431-1.744-3.431-3.906v-36.998
		c0-2.162,1.538-3.908,3.431-3.908h36.75c10.028,0,17.482,1.906,22.361,5.725c4.875,3.811,7.315,9.217,7.315,16.219V388.486z"/>
	<path fill="#222944" d="M270.817,436.697c2.117,0,3.833-1.957,3.833-4.367V275.367c0-2.414-1.716-4.369-3.833-4.369h-18.076
		c-2.117,0-3.837,1.955-3.837,4.369V432.33c0,2.41,1.721,4.367,3.837,4.367H270.817z"/>
	<path fill="#222944" d="M315.864,436.697c2.115,0,3.831-1.957,3.831-4.367V275.367c0-2.414-1.716-4.369-3.831-4.369h-18.079
		c-2.117,0-3.837,1.955-3.837,4.369V432.33c0,2.41,1.721,4.367,3.837,4.367H315.864z"/>
	<path fill="#222944" d="M351.407,270.998h-12.413v20.217v141.463c0,2.223,1.583,4.02,3.538,4.02h18.675
		c1.953,0,3.538-1.797,3.538-4.02v-59.082c0-4.301,0.616-8.324,1.852-12.051c1.234-3.721,2.946-6.992,5.125-9.813
		c2.184-2.811,4.804-5.006,7.855-6.574c3.054-1.576,6.332-2.363,9.818-2.363c5.674,0,10.294,2.031,13.858,6.084
		c3.56,4.057,5.345,9.809,5.345,17.266v66.533c0,2.223,1.583,4.02,3.536,4.02h18.675c1.956,0,3.534-1.797,3.534-4.02v-66.779
		c0-7.115-0.87-13.666-2.617-19.629c-1.747-5.957-4.255-11.057-7.528-15.277c-3.271-4.219-7.382-7.488-12.329-9.814
		c-4.944-2.314-10.547-3.473-16.799-3.473c-7.854,0-14.291,1.578-19.308,4.717c-5.018,3.15-8.84,6.377-11.454,9.691V285.68
		C364.309,277.57,358.531,270.998,351.407,270.998z"/>
	<path fill="#222944" d="M718.416,436.697h16.586c2.533,0,4.582-2.334,4.582-5.211v-65.588c0-14.74-3.348-26.459-10.035-35.158
		c-6.693-8.688-16.441-13.039-29.238-13.039c-4.074,0-7.715,0.5-10.91,1.49c-3.205,0.998-6.076,2.281-8.621,3.854
		c-2.545,1.58-4.729,3.27-6.545,5.092c-1.82,1.82-3.383,3.566-4.693,5.221l-0.424-8.518c-0.125-2.615-2.023-4.65-4.32-4.65h-16.234
		c-2.393,0-4.33,2.203-4.33,4.926v106.371c0,2.877,2.047,5.211,4.58,5.211h16.59c2.527,0,4.576-2.334,4.576-5.211v-57.885
		c0-4.311,0.617-8.324,1.855-12.053c1.236-3.729,2.943-6.992,5.129-9.813c2.178-2.811,4.799-5.01,7.854-6.578
		c3.055-1.576,6.326-2.363,9.818-2.363c5.676,0,10.291,2.027,13.855,6.09c3.563,4.059,5.346,9.809,5.346,17.26v65.342
		C713.836,434.363,715.889,436.697,718.416,436.697z"/>
	<path fill="#222944" d="M754.582,339.537c1.369,0.9,2.848,1.354,4.428,1.354c1.57,0,3.043-0.453,4.424-1.361
		c1.373-0.908,2.463-2.139,3.256-3.693c0.789-1.561,1.182-3.246,1.182-5.068c0-1.771-0.396-3.445-1.199-5.021
		c-0.799-1.578-1.883-2.813-3.244-3.709c-1.371-0.895-2.84-1.348-4.418-1.348c-1.586,0-3.063,0.453-4.441,1.354
		c-1.369,0.902-2.455,2.133-3.248,3.711c-0.793,1.58-1.193,3.273-1.193,5.07c0,1.785,0.4,3.451,1.193,5.016
		C752.113,337.402,753.199,338.637,754.582,339.537z M751.346,330.816c0-1.557,0.336-3.016,1.025-4.371
		c0.68-1.354,1.615-2.422,2.813-3.201c1.191-0.781,2.477-1.168,3.846-1.168c1.357,0,2.625,0.387,3.799,1.168
		c1.182,0.779,2.115,1.848,2.797,3.201c0.693,1.355,1.033,2.803,1.033,4.342c0,1.57-0.34,3.021-1.029,4.361
		c-0.678,1.344-1.613,2.398-2.801,3.186c-1.188,0.783-2.451,1.176-3.799,1.176c-1.361,0-2.641-0.393-3.834-1.168
		c-1.205-0.783-2.145-1.84-2.824-3.186C751.682,333.813,751.346,332.365,751.346,330.816z"/>
	<path fill="#222944" d="M756.896,331.689h2.582c0.646,0,1.084,0.041,1.297,0.141c0.209,0.096,0.381,0.248,0.498,0.461
		c0.115,0.215,0.195,0.584,0.223,1.102l0.084,1.42c0.043,0.658,0.125,1.227,0.246,1.699h1.809l-0.172-0.309
		c-0.238-0.406-0.355-0.914-0.355-1.535v-1.303c0-0.832-0.08-1.41-0.236-1.742c-0.164-0.34-0.469-0.639-0.928-0.891
		c0.504-0.385,0.828-0.725,0.979-1.041c0.189-0.432,0.289-0.939,0.289-1.527c0-0.682-0.143-1.279-0.42-1.793
		c-0.271-0.52-0.633-0.883-1.074-1.111c-0.439-0.229-1.154-0.34-2.154-0.34h-4.279v11.592h1.613V331.689z M756.896,326.604h2.633
		c0.795,0,1.344,0.143,1.631,0.41c0.291,0.271,0.438,0.711,0.438,1.299c0,0.672-0.203,1.154-0.609,1.439
		c-0.271,0.195-0.793,0.293-1.555,0.293h-2.537V326.604z"/>
	<path fill="#222944" d="M585.973,436.352c2.389,0,4.32-2.203,4.32-4.916v-57.943c0-4.297,0.688-8.193,2.074-11.666
		c1.375-3.482,3.232-6.465,5.557-8.945c2.328-2.488,5.094-4.389,8.297-5.715c3.197-1.326,6.545-1.988,10.035-1.988
		c2.471,0,4.617,0.168,6.436,0.494c0.584,0.107,1.164,0.244,1.742,0.4c2.004,0.547,4.02-0.84,4.457-3.137l3.674-19.348
		c0.42-2.223-0.811-4.396-2.75-4.924c-0.854-0.24-1.703-0.428-2.535-0.566c-1.967-0.326-4.189-0.496-6.658-0.496
		c-4.225,0-7.967,0.58-11.24,1.738c-3.271,1.162-6.143,2.566-8.615,4.229c-2.475,1.654-4.619,3.475-6.439,5.465
		c-1.822,1.982-3.309,3.809-4.471,5.463l-0.445-9.918c-0.119-2.652-2.047-4.744-4.381-4.744h-16.096
		c-2.422,0-4.385,2.242-4.385,5.002v106.6c0,2.713,1.932,4.916,4.314,4.916H585.973z"/>
	<path fill="#222944" d="M153.991,321.99h-15.794c-2.196,0-3.975,2.027-3.975,4.531v62.824c0,27.303,21.942,46.277,45.135,46.516
		v0.006h0.164c0.093,0,0.186,0.008,0.278,0.008v-0.008h4.264v0.008c0.107,0,0.215-0.008,0.325-0.008h0.504v-0.012
		c23.044-0.447,44.745-19.361,44.745-46.51v-62.824c0-2.504-1.781-4.531-3.971-4.531h-15.793c-2.197,0-3.978,2.027-3.978,4.531
		v56.623c0,15.506-9.723,25.922-21.6,25.922c-2.263,0-3.814,0-4.729,0c-11.875,0-21.604-10.416-21.604-25.922v-56.623
		C157.961,324.018,156.187,321.99,153.991,321.99z"/>
	<path fill="#222944" d="M477.425,436.191c6.766,3.316,14.215,4.973,22.364,4.973c8.146,0,15.6-1.656,22.366-4.973
		c6.764-3.305,12.546-7.818,17.345-13.535c4.801-5.719,8.543-12.33,11.238-19.873c2.691-7.537,4.033-15.521,4.033-23.971
		c0-8.451-1.342-16.436-4.033-23.979c-2.695-7.527-6.438-14.115-11.238-19.742c-4.799-5.631-10.582-10.104-17.345-13.422
		c-6.767-3.311-14.22-4.965-22.366-4.965c-8.149,0-15.598,1.654-22.364,4.965c-6.764,3.318-12.546,7.791-17.347,13.422
		c-4.8,5.627-8.545,12.215-11.239,19.742c-2.69,7.543-4.034,15.527-4.034,23.979c0,8.449,1.344,16.434,4.034,23.971
		c2.694,7.543,6.439,14.154,11.239,19.873C464.878,428.373,470.661,432.887,477.425,436.191z M472.515,366.014
		c1.163-4.385,2.946-8.357,5.347-11.924c2.401-3.557,5.416-6.455,9.053-8.689c3.635-2.24,7.927-3.361,12.874-3.361
		c4.942,0,9.238,1.121,12.875,3.361c3.633,2.234,6.654,5.133,9.053,8.689c2.401,3.566,4.18,7.539,5.345,11.924
		c1.163,4.393,1.747,8.662,1.747,12.799c0,4.305-0.584,8.609-1.747,12.918c-1.165,4.309-2.944,8.279-5.345,11.924
		c-2.399,3.643-5.42,6.584-9.053,8.814c-3.637,2.238-7.933,3.357-12.875,3.357c-4.947,0-9.238-1.119-12.874-3.357
		c-3.637-2.23-6.652-5.172-9.053-8.814c-2.401-3.645-4.184-7.615-5.347-11.924c-1.165-4.309-1.747-8.613-1.747-12.918
		C470.768,374.676,471.35,370.406,472.515,366.014z"/>
	<path fill="#FF6B00" d="M931.674,453.355c1.066-0.523,1.99-0.244,2.76,0.398c1.549,2.945,2.482,1.055,4.074,0.385
		c3.338-2.184,6.738-1.918,6.746-6.74c-0.061-1.943-8.27-23.078-13.398-30.32c-3.859-5.434-9.016-9.314-12.85-14.586
		c-5.154-7.088-11.082-13.773-12.404-24.887c-0.842-7.115-5.799-12.334-9.424-17.988c-2.277-3.543-2.602-5.104-8.17-15.047
		c-0.252-0.457-1.627-3.1-1.764-3.516c-0.998-2.9-3.461-4.822-6.174-5.16c-18.236-2.258-50.18-8.674-63.967-15.229
		c-1.5-0.607,5.061,8.367,5.822,10.074c0.354,0.791,0.826,1.467,1.219,2.139c9.086,15.68,21.523,24.764,32.035,29.777
		c4.627,2.215,9.346,4.086,13.971,6.191c7.068,3.213,12.541,8.689,15.688,17.471c1.41,3.941,3.82,7.07,6.82,9.129
		c4.975,3.432,8.082,9.055,9.555,15.299c0.213,0.607,0.428,1.215,0.637,1.822c17.563,35.605,8.455,27.709,12.893,41.311
		c0.035,0.127,0.066,0.26,0.098,0.383c0.73,4.396,2.502,4.496,4.973,5.332c3.141,1.064,6.051,0.832,8.828-0.16
		c0.799-0.279,1.354-1.273,1.277-2.307C930.805,455.484,930.721,453.826,931.674,453.355z"/>
	<path fill="#FF6B00" d="M1059.258,265.895c0.236-3.777-1.436-2.619-2.682-1.676c-4.289,3.25-9.891,4.426-11.254,12.559
		c-0.301,1.803-1.803,2.461-2.977,3.25c-11.137,7.527-23.418-1.43-26.426-19.701c-1.557-9.48-3.615-18.738-6.93-27.374
		c-1.791-4.66-7.029-10.851-9.59-15.725c-0.424-0.808-0.672-1.716-0.697-2.657c-0.127-5.024-1.998-16.552-13.986-24.498
		c-0.088-0.067-0.176-0.129-0.266-0.196c-14.691-12.163-46.311-24.713-63.275-30.558c-6.473-2.04-8.209,2.705-8.369,5.698
		c-0.027,0.571,0.037,1.131,0.178,1.687c0.332,1.348,1.037,4.102,1.049,4.184c4.014,17.46,9.184,41.646,6.219,40.703
		c-3.17-1.004-11.02-51.509-29.555-66.043c-0.115-0.109-0.232-0.211-0.352-0.321c-12.088-12.735-37.203-18.716-45.67-20.733
		c-1.104-0.265-2.1-0.957-2.773-1.983c-4.979-7.542-12.762-9.84-24.855-12.086c-5.023-0.929-9.326-1.637-13.004-2.143
		c-3.025-0.421-4.961-3.869-4.021-7.172l0.014-0.056c0.387-1.377,0.396-4.159-0.389-4.519c-0.91-0.406-3.734,1.029-6.133,1.329
		c-1.59,0.208-3.43-0.965-3.518-1.027c-0.053-0.035-0.072-0.041-0.096-0.05c-6.078-7.387,10.677-14.11,6.908-14.411
		c-1.35-0.105-2.654-0.143-3.953-0.173c-5.295-0.128-10.166,0.296-14.287,0.967c-1.086,0.172-1.775-0.991-1.682-2.038
		c0.047-0.5,0.256-0.978,0.719-1.265c22.9-14.162,31.5-30.346,31.5-30.346s6.967-12.883-9.209-21.409
		c-3.082-1.621-7.008-3.098-12-4.303c-13.996-3.38-26.563-8.616-36.254-13.42c-3.416-1.693-6.471-3.332-9.102-4.814
		c-0.1-0.058-0.746-0.42-1.281-0.598c-1.512-0.656-2.838-0.133-3.613,2.017c-1.289,3.558,3.021,5.384,5.277,7.373
		c9.613,8.481,20.514,13.904,30.457,21.249c6.271,4.631,6.453,6.683,0.703,11.182c-8.342,6.529-17.781,10.608-27.277,14.672
		c-0.514,0.22-1.01,0.315-1.498,0.33c-5.006-3.766-10.039-4.513-14.672-3.537c-8.33,0.388-16.125,5.685-20.365,14.581
		c-0.885,1.856-2.664,2.932-4.512,2.764c-0.344-0.032-0.682-0.054-1.027-0.042c-0.631-0.126-1.328-0.136-1.842-0.092
		c-20.488,1.803-24.57,11.379-25.367,15.476c-0.236,1.2-0.908,2.213-1.873,2.682c-44.076,21.164-75.113,5.301-85.516-1.669
		c-0.07-0.052-0.154-0.105-0.225-0.152c-1.336-0.903-2.908,0.539-2.342,2.181c9.793,28.368,60.313,30.583,74.418,30.625
		c0.602,0.004,1.158,0.004,1.627,0c1.057-0.008,1.906,1.219,1.557,2.373c-3.621,11.847-7.945,19.597-10.672,23.861
		c-1.352,2.115-2.396,4.447-3.094,6.937l-0.289,1.027c-1.227,4.372-1.182,9.077,0.139,13.412c0.318,1.057,0.34,2.199,0.08,3.28
		c-0.146,0.607-0.23,1.042-0.27,1.469c0,0-0.117,1.104,0.064,2.36c2.635,18.37,11.434,22.325,11.434,22.325s1.48,1.027,7.271,0.711
		c13.76-0.743,36.885-4.484,42.631-4.929c0.611-0.048,1.217,0.017,1.813,0.196l0.375,0.11c0.42,0.125,0.82,0.295,1.213,0.527
		c19.887,11.734,49.521,48.32,60.135,69.476c0.602,1.283,1.213,2.543,1.84,3.795c4.988,10.814,10.24,18.895,18.762,26.068
		c0.949,0.797,3.646,3.086,8.029,5.924c5.488,3.557,9.943,5.625,13.533,7.273c9.643,4.436,17.615,6.729,23.451,8.414
		c2.5,0.717,4.141,1.133,5.184,1.381c4.492,1.082,8.57,1.719,13.68,2.484c19.244,2.875,28.162,1.719,31.678,8.693
		c0.24,0.332,0.922,2.998,1.143,3.922c0.027,0.111,0.055,0.209,0.084,0.324c4.723,15.689,7.717,17.531,9.855,24.734
		c1.008,3.385,2.576,5.271,5.285,6.191c4.256,1.441,8.047,4.125,9.773,9.385c3.984,12.111,11.658,21.473,21.59,24.617
		c10.955,3.475,15.977,2.371,22.555-8.012c2.465-3.883,2.607-7.496,0.598-11.541c-3.914-7.91-9.752-11.695-16.904-12.699
		c-3.422-0.477-6.68-2.445-7.146-6.443c-0.777-6.662-3.809-10.57-7.322-14.674c-3.465-4.057-2.633-9.748,1.26-12.369
		c1.02-0.68,12.719-11.242,17.469-13.959c1.695-1,11.787-5.023,12.109-13.086c-1.457-19.279,1.293-33.025,2.574-32.893
		c0.734,0.072-0.582,6.4,1.686,18.432c0.107,0.598,0.262,1.178,0.439,1.742c0,0.004,0,0.008,0,0.014
		c2.09,13.871,16.592,35.652,23.732,44.906c0.357,0.455,0.629,0.979,0.824,1.559c1.439,4.301,3.334,8.258,5.695,11.998
		c0.943,1.5,1.967,4.197,2.234,6.01c2.293,15.504,8.775,29.148,10.094,44.918c0.496,6.004,1.684,13.299,0.98,15.996
		c-0.164,0.607-0.289,1.234-0.24,1.867c0.336,4.25,1.531,13.705,2.953,14.521c1.51,0.863,8.607,2.502,11.818-1.574
		c0.258-0.32,0.385-0.783,0.43-1.24c0.629-6.795,3.049-3.854,4.287-2.014c0.377,0.561,0.979,0.758,1.549,0.51
		c2.961-1.27,4.311-2.645,6.109-5.074c0.223-0.291,0.377-0.672,0.445-1.076c0.967-5.813,1.197-11.531-1.184-16.928
		c-2.131-4.828-4.703-9.143-7.492-13.299c-6.68-9.953-10.395-21.195-7.76-35.285c1.146-6.145,0.023-11.785-2.967-16.48
		c-2.07-3.27-2.316-6.301-1.564-10.697c2.273-13.33,3.025-26.875,1.795-40.438c-0.189-2.084-1.201-4.395,0.406-6.037
		c1.551-1.574,3.164-0.09,4.617,0.713c7.195,4.008,14.098,2.82,20.797-2.035c1.551-1.119,3.033-2.254,4.898-2.254
		c7.713,0.008,11.318-5.768,11.85-9.566c0.205-1.467,0.051-4.559-1.164-6.426C1060.053,267.59,1059.184,267.029,1059.258,265.895z"
		/>
</g>
</svg>
