<?xml version="1.0" encoding="utf-8"?>
<!-- Generator: Adobe Illustrator 19.0.0, SVG Export Plug-In . SVG Version: 6.00 Build 0)  -->
<svg version="1.1" id="layer" xmlns="http://www.w3.org/2000/svg" xmlns:xlink="http://www.w3.org/1999/xlink" x="0px" y="0px"
	 viewBox="-153 -46 652 652" style="enable-background:new -153 -46 652 652;" xml:space="preserve">
<style type="text/css">
	.st0{fill:#082658;}
</style>
<path class="st0" d="M121.4,225.8c55.6,0,73.6-41.7,73.6-82.1c0-42.1-16-80.7-76.7-80.7H80.7v162.8H121.4z M39.3,25.7h82.4
	c77.4,0,114.7,52.9,114.7,118.4c0,69.5-45.1,119-113.6,119H39.3V25.7z M349,234.8l-48.7-130.1v158.4h-41V25.7h53.9l57.1,152.5
	L349,234.8z M497.8,63.9v199.2h-41v-89.6L497.8,63.9z M490.9,25.7L402,263.1h-42.4l88.9-237.4H490.9z M482.8,524.7h-42.4l-19.7-53.3
	h-75.6l14-37.3h47.7l-23.8-64l20.9-55.9L482.8,524.7z M392.9,287.3l-88.9,237.4h-42.4l88.9-237.4H392.9z M34.6,368.3
	c12.2,0,16.1-9.1,16.1-18c0-9.2-3.5-17.7-16.8-17.7h-8.3v35.6H34.6z M16.6,324.5h18.1c16.9,0,25.1,11.6,25.1,25.9
	c0,15.2-9.9,26.1-24.9,26.1H16.6V324.5z M88,363.4v-4.3l-7.3,1.1c-4.6,0.7-6.7,2.2-6.7,5.3c0,2.8,2.5,4.7,6.5,4.7
	C84.5,370.3,88,367.9,88,363.4 M65.4,366c0-5.4,2.8-10.6,14.6-12.3l8-1.1v-0.4c0-4.2-2.1-6.7-6.8-6.7c-4.7,0-6.8,2.2-7.3,6l-7.9-1.9
	c2-7.4,6.7-11.2,15.5-11.2c8.2,0,15.4,4.1,15.4,13.7v24.4h-7.5l-1-3.4c-1.5,2.1-4.4,4.4-10.3,4.4C71.1,377.5,65.4,373.1,65.4,366
	 M108.3,366.5v-19.3h-6.4v-7.8h6.4v-9.6h8.9v9.6h9.4v7.8h-9.4v18c0,2.8,1.3,4,3.5,4c1.6,0,2.7-0.7,3.4-1.3l3.7,6.3
	c-1,1.3-3.9,3.3-9.1,3.3C113.1,377.5,108.3,373.8,108.3,366.5 M155.5,363.4v-4.3l-7.3,1.1c-4.6,0.7-6.7,2.2-6.7,5.3
	c0,2.8,2.5,4.7,6.5,4.7C152,370.3,155.5,367.9,155.5,363.4 M132.9,366c0-5.4,2.8-10.6,14.6-12.3l7.9-1.1v-0.4c0-4.2-2.1-6.7-6.8-6.7
	c-4.7,0-6.8,2.2-7.4,6l-7.9-1.9c2-7.4,6.7-11.2,15.5-11.2c8.3,0,15.4,4.1,15.4,13.7v24.4h-7.5l-1-3.4c-1.5,2.1-4.4,4.4-10.3,4.4
	C138.6,377.5,132.9,373.1,132.9,366 M217.5,352.4h-7.6c-5,0-9.1,3.4-9.1,8.6c0,5.2,3.9,8.4,8.6,8.4c4.5,0,8.2-3.2,8.2-8.4V352.4z
	 M230.8,352.5h-4.8v8.5c0,9.8-7.4,16.5-16.6,16.5c-10.3,0-17.7-6.5-17.7-16.4c0-5.6,2.7-10,6.9-12.8c-2.7-2.5-4.3-5.9-4.3-10.1
	c0-8.7,7.1-14.8,16-14.8c8.4,0,13.5,4.5,14.9,11l-7.9,2c-0.7-3.3-3.6-5.3-7.1-5.3c-4.2,0-7.5,2.7-7.5,7c0,4.3,3.3,7,7.4,7h7.4v-4.4
	h8.4v4.5h4.8V352.5z M-51.5,450.5h-9v-35.2l-15,35.2h-6.4l-14.9-35l-0.1,35h-9v-52h10.2l17,39.8l17-39.8h10.2V450.5z M-21.6,437.5
	v-4.3l-7.4,1.1c-4.6,0.7-6.7,2.2-6.7,5.2c0,2.8,2.5,4.8,6.5,4.8C-25.1,444.4-21.6,442-21.6,437.5 M-44.2,440.1
	c0-5.4,2.8-10.6,14.6-12.3l7.9-1.1v-0.4c0-4.2-2.1-6.8-6.8-6.8c-4.7,0-6.8,2.2-7.4,6l-7.9-1.9c2-7.4,6.7-11.2,15.5-11.2
	c8.2,0,15.4,4.1,15.4,13.7v24.3h-7.5l-1-3.4c-1.5,2.1-4.4,4.4-10.3,4.4C-38.5,451.6-44.2,447.2-44.2,440.1 M-4.2,413.5h7.4l1.3,4.3
	c1.5-2.7,4.7-5.4,9.3-5.4c3,0,5.2,0.9,6.4,1.8l-3.2,7.8c-0.7-0.6-2.3-1.3-4.4-1.3c-4.3,0-7.8,3.4-7.8,9.6v20.2h-8.9V413.5z
	 M37.6,434.3l-3.6,3.9v12.3h-8.9v-52H34v28.1l12.6-13.2h10.8l-13.9,14.7L59,450.5H48.9L37.6,434.3z M79.4,419.8
	c-6,0-9.4,4.1-10.2,8.3H89C88.8,424.8,85.8,419.8,79.4,419.8 M69.2,434.9c0.4,4.7,4.4,9.3,10.2,9.3c5.2,0,8.2-3.1,9-5.6l7.5,2.3
	c-2.2,6-7.5,10.7-16.6,10.7c-10.6,0-18.8-8.2-18.8-19.6c0-11.2,8.2-19.5,18.7-19.5c10.8,0,17.5,7.8,17.5,19.1v3.4H69.2z
	 M107.7,440.6v-19.3h-6.4v-7.8h6.4v-9.6h8.9v9.6h9.4v7.8h-9.4v18c0,2.8,1.3,3.9,3.5,3.9c1.6,0,2.7-0.7,3.4-1.3l3.7,6.3
	c-1,1.3-3.9,3.3-9.1,3.3C112.5,451.6,107.7,447.8,107.7,440.6 M134.1,413.5h8.9v37.1h-8.9V413.5z M133.3,403.2
	c0-2.9,2.3-5.2,5.2-5.2c2.9,0,5.3,2.3,5.3,5.2c0,2.9-2.5,5.3-5.3,5.3C135.6,408.4,133.3,406.1,133.3,403.2 M151.8,413.5h7.3l1.3,4.5
	c2.3-3.1,5.8-5.5,11.3-5.5c8.4,0,13.3,4.8,13.3,15.7v22.4H176v-21.2c0-6.5-3.1-8.6-7.2-8.6c-4.5,0-8.2,3.2-8.2,9.5v20.3h-8.9V413.5z
	 M219.8,431.4c0-6.7-4.2-10.9-10-10.9c-5.8,0-9.9,4.2-9.9,10.9c0,6.6,4.2,10.8,10,10.8C215.7,442.2,219.8,438,219.8,431.4
	 M192.7,454.4l8.3-1.9c0.9,3.8,3.6,6.3,8.8,6.3c6.2,0,10-3.3,10-9.6v-4.5c-1.6,2.7-5.5,5.5-11.1,5.5c-10.4,0-17.7-8.1-17.7-18.8
	c0-10.7,7.4-18.9,17.6-18.9c5.9,0,9.7,3,11.2,5.5l1.6-4.5h7.3v35.7c0,10.4-6.9,17.3-18.9,17.3C199.9,466.4,194.5,461.2,192.7,454.4
	 M-129,504.8l-7.6-20.4l-7.6,20.4H-129z M-125.9,513h-21.2l-4.3,11.7h-9.3l19.4-52h9.5l19.4,52h-9.3L-125.9,513z M-109.2,514.6
	l7.9-2.5c0.9,3.3,2.8,6.2,7.6,6.2c4,0,6.6-1.6,6.6-4.2c0-1.9-1.2-3.4-6.8-4.4c-7.7-1.4-14.2-3.8-14.2-11.5c0-6.4,5.4-11.6,14.4-11.6
	c7.4,0,12.5,3.9,14.1,10.6l-7.8,2.2c-0.7-2.7-2.2-5.4-6.3-5.4c-4.2,0-6.1,1.9-6.1,3.8c0,2.5,2.7,3.4,7.4,4.3
	c8.2,1.5,13.7,4.4,13.7,11.8c0,6.6-5.9,11.8-15,11.8C-101.9,525.7-107.4,521.5-109.2,514.6 M-73.9,514.6l7.9-2.5
	c0.9,3.3,2.8,6.2,7.6,6.2c4,0,6.6-1.6,6.6-4.2c0-1.9-1.2-3.4-6.8-4.4c-7.7-1.4-14.2-3.8-14.2-11.5c0-6.4,5.4-11.6,14.4-11.6
	c7.4,0,12.5,3.9,14.1,10.6l-7.8,2.2c-0.7-2.7-2.2-5.4-6.3-5.4c-4.2,0-6.1,1.9-6.1,3.8c0,2.5,2.7,3.4,7.4,4.3
	c8.2,1.5,13.7,4.4,13.7,11.8c0,6.6-5.9,11.8-15,11.8C-66.5,525.7-72,521.5-73.9,514.6 M-9.2,506.1c0-6.5-4.5-11.3-10.4-11.3
	c-6,0-10.3,4.8-10.3,11.3c0,6.6,4.3,11.4,10.3,11.4C-13.7,517.4-9.2,512.7-9.2,506.1 M-38.8,506.1c0-10.9,8.2-19.5,19.2-19.5
	c11.1,0,19.3,8.6,19.3,19.5c0,11-8.2,19.6-19.3,19.6C-30.8,525.7-38.8,517-38.8,506.1 M4.6,506.1c0-11,8-19.5,19.2-19.5
	c8.3,0,14.5,4.7,16.7,11.7l-8.1,2.7c-1.3-3.8-4.4-6.2-8.6-6.2c-6,0-10.2,4.6-10.2,11.3c0,6.7,4.2,11.4,10.2,11.4
	c4,0,7.1-2.1,8.4-5.9l8.1,2.7c-2.5,6.9-8.5,11.4-16.5,11.4C12.5,525.7,4.6,517.1,4.6,506.1 M48,487.6h8.9v37H48V487.6z M47.1,477.2
	c0-2.9,2.3-5.3,5.2-5.3c2.9,0,5.4,2.4,5.4,5.3c0,2.9-2.5,5.3-5.4,5.3C49.4,482.5,47.1,480.2,47.1,477.2 M87.2,511.6v-4.3l-7.4,1.1
	c-4.6,0.7-6.7,2.2-6.7,5.3c0,2.8,2.5,4.8,6.5,4.8C83.7,518.5,87.2,516.1,87.2,511.6 M64.6,514.2c0-5.4,2.8-10.6,14.6-12.3l8-1.1
	v-0.4c0-4.2-2.1-6.7-6.8-6.7c-4.7,0-6.8,2.2-7.3,6l-7.9-1.9c2-7.4,6.7-11.2,15.5-11.2c8.3,0,15.5,4.1,15.5,13.7v24.4h-7.5l-1-3.3
	c-1.5,2.1-4.4,4.4-10.3,4.4C70.3,525.7,64.6,521.3,64.6,514.2 M108.1,514.7v-19.3h-6.4v-7.8h6.4v-9.6h8.9v9.6h9.4v7.8H117v18
	c0,2.7,1.3,3.9,3.5,3.9c1.6,0,2.7-0.7,3.4-1.3l3.7,6.3c-1,1.3-3.9,3.3-9.1,3.3C112.9,525.7,108.1,521.9,108.1,514.7 M134.6,487.6
	h8.9v37h-8.9V487.6z M133.8,477.2c0-2.9,2.3-5.3,5.2-5.3c2.9,0,5.3,2.4,5.3,5.3c0,2.9-2.5,5.3-5.3,5.3
	C136.1,482.5,133.8,480.2,133.8,477.2 M179.8,506.1c0-6.5-4.5-11.3-10.4-11.3c-6,0-10.3,4.8-10.3,11.3c0,6.6,4.3,11.4,10.3,11.4
	C175.4,517.4,179.8,512.7,179.8,506.1 M150.2,506.1c0-10.9,8.2-19.5,19.2-19.5c11.1,0,19.3,8.6,19.3,19.5c0,11-8.2,19.6-19.3,19.6
	C158.2,525.7,150.2,517,150.2,506.1 M195.6,487.6h7.3l1.3,4.5c2.3-3.1,5.8-5.5,11.3-5.5c8.4,0,13.3,4.8,13.3,15.7v22.4h-8.9v-21.2
	c0-6.5-3-8.6-7.2-8.6c-4.5,0-8.2,3.2-8.2,9.5v20.4h-8.9V487.6z"/>
</svg>
