<?xml version="1.0" encoding="utf-8"?>
<!-- Generator: Adobe Illustrator 16.0.0, SVG Export Plug-In . SVG Version: 6.00 Build 0)  -->
<svg version="1.2" baseProfile="tiny" id="Layer_1" xmlns="http://www.w3.org/2000/svg" xmlns:xlink="http://www.w3.org/1999/xlink"
	 x="0px" y="0px" width="500px" height="500px" viewBox="0 0 500 500" xml:space="preserve">
<g>
	<path fill="#6A757C" d="M180.526,200.831c24.462,0,44.347,19.611,44.771,43.96c0.453,14.194,12.08,25.557,26.369,25.557
		c14.289,0,25.943-11.363,26.369-25.557h18.422c-0.436,24.35-20.338,43.969-44.791,43.969c-24.462,0-44.347-19.619-44.781-43.969
		c-0.453-14.165-12.09-25.538-26.359-25.538c-14.298,0-25.925,11.373-26.388,25.538h-18.422
		C136.169,220.442,156.073,200.831,180.526,200.831"/>
	<path fill="#EC1C24" d="M371.73,200.737v44.045c0,0.17,0,0.312-0.02,0.453c-0.65,13.976-12.184,25.113-26.34,25.113
		c-14.109,0-25.633-11.09-26.34-25.029c0-0.16-0.02-44.545-0.02-44.724H300.58c0,0.15,0,44.507,0.01,44.64
		c0.68,24.169,20.471,43.525,44.781,43.525c24.283,0,44.055-19.318,44.799-43.431v-0.547v-44.045H371.73z"/>
	<path fill="#EC1C24" d="M110.896,158.295c0,0.104,0.019,130.257,0.019,130.257h18.432V158.295H110.896z"/>
	<path fill="#EC1C24" d="M437.83,271.168c-14.563,0-26.387-11.797-26.406-26.377c0.453-14.165,12.6-25.538,26.896-25.538
		c10.117,0,18.885,5.701,23.34,14.043c1.66,3.474,2.605,7.353,2.605,11.458C464.256,259.361,452.43,271.168,437.83,271.168
		 M483.102,288.742v-0.359V272.16v0.35v-27.908c-0.547-24.273-20.395-43.771-44.791-43.771c-4.443,0-8.748,0.642-12.777,1.85
		c-18.082,5.012-31.428,21.339-31.965,40.855c-0.02,0.415-0.037,0.831-0.057,1.255h0.037c0.02,24.104,19.555,43.659,43.648,43.659
		c10.42,0,19.99-3.672,27.473-9.758v10.021v0.037h18.432V288.742z"/>
	<path fill="#EC1C24" d="M180.526,288.76c24.462,0,44.347-19.611,44.771-43.978c0.453-14.156,12.08-25.529,26.369-25.529
		c14.184,0,25.756,11.213,26.359,25.246c0,0.094,0.01,97.207,0.01,97.207h18.422v-97.113c-0.559-24.254-20.387-43.762-44.791-43.762
		c-24.462,0-44.347,19.621-44.781,43.951c-0.453,14.212-12.09,25.576-26.359,25.576c-14.298,0-25.925-11.363-26.388-25.576h-18.422
		C136.169,269.148,156.073,288.76,180.526,288.76"/>
	<path fill="#EC1C24" d="M82.517,234.504c-1.368-4.568-4.058-8.315-8.078-11.184c-4.002-2.869-8.654-4.285-13.959-4.285
		c-5.747,0-10.814,1.604-15.138,4.813c-2.736,2.02-5.256,5.587-7.568,10.655H82.517z M103.167,250.765H36.858
		c0.963,5.85,3.502,10.485,7.664,13.958c4.162,3.445,9.484,5.172,15.931,5.172c7.71,0,14.335-2.689,19.865-8.098l17.403,8.184
		c-4.342,6.133-9.561,10.691-15.591,13.627c-6.04,2.953-13.213,4.426-21.536,4.426c-12.911,0-23.405-4.059-31.541-12.211
		c-8.106-8.137-12.155-18.318-12.155-30.559c0-12.553,4.04-22.99,12.127-31.258c8.089-8.323,18.243-12.448,30.437-12.448
		c12.957,0,23.48,4.134,31.606,12.439c8.097,8.276,12.174,19.243,12.174,32.833L103.167,250.765z"/>
</g>
</svg>
